<svg width="234" height="235" viewBox="0 0 234 235" fill="none" xmlns="http://www.w3.org/2000/svg">
<g opacity="0.75">
<path d="M116.753 218.602C173.065 218.602 218.714 172.976 218.714 116.692C218.714 60.4093 173.065 14.7828 116.753 14.7828C60.4423 14.7828 14.7931 60.4093 14.7931 116.692C14.7931 172.976 60.4423 218.602 116.753 218.602Z" fill="url(#paint0_radial_62_3802)" style="mix-blend-mode:multiply"/>
</g>
<path d="M116.753 7.20128C177.254 7.20128 226.301 56.2219 226.301 116.694C226.301 177.166 177.256 226.187 116.753 226.187C56.2513 226.187 7.20775 177.163 7.20775 116.692C7.20775 56.2219 56.2527 7.20128 116.753 7.20128ZM116.753 0C108.837 0 100.923 0.797903 93.231 2.37066C85.7321 3.90454 78.3544 6.1931 71.3051 9.173C64.3856 12.0982 57.7124 15.719 51.4701 19.9332C45.2898 24.107 39.4783 28.8988 34.1957 34.1787C28.9146 39.4573 24.119 45.2658 19.9431 51.4445C15.7268 57.6837 12.1042 64.3536 9.17756 71.2697C6.19618 78.3154 3.90648 85.6881 2.37184 93.1846C0.798299 100.873 0 108.783 0 116.695C0 124.608 0.798299 132.518 2.37184 140.206C3.90648 147.701 6.19618 155.075 9.17756 162.121C12.1042 169.037 15.7268 175.707 19.9431 181.946C24.119 188.123 28.9131 193.932 34.1957 199.212C39.4769 204.491 45.2883 209.284 51.4701 213.458C57.7124 217.672 64.3856 221.293 71.3051 224.218C78.3544 227.198 85.7307 229.486 93.231 231.02C100.921 232.593 108.837 233.391 116.753 233.391C124.67 233.391 132.584 232.593 140.276 231.02C147.775 229.486 155.152 227.198 162.202 224.218C169.121 221.293 175.794 217.672 182.037 213.458C188.217 209.284 194.028 204.492 199.311 199.212C204.592 193.933 209.388 188.125 213.564 181.946C217.78 175.707 221.403 169.037 224.329 162.121C227.311 155.075 229.6 147.703 231.135 140.206C232.709 132.518 233.507 124.608 233.507 116.695C233.507 108.783 232.709 100.873 231.135 93.1846C229.6 85.6895 227.311 78.3154 224.329 71.2697C221.403 64.3536 217.78 57.6837 213.564 51.4445C209.388 45.2673 204.594 39.4587 199.311 34.1787C194.03 28.9002 188.218 24.107 182.037 19.9332C175.794 15.719 169.121 12.0982 162.202 9.173C155.152 6.1931 147.776 3.90454 140.276 2.37066C132.584 0.797903 124.67 0 116.753 0Z" fill="white"/>
<path d="M116.753 230.362C101.403 230.362 86.5088 227.356 72.4853 221.428C58.943 215.703 46.7812 207.508 36.337 197.069C25.8943 186.631 17.6951 174.476 11.9658 160.939C6.03478 146.922 3.02747 132.036 3.02747 116.692C3.02747 101.349 6.03478 86.4629 11.9658 72.4463C17.6937 58.9108 25.8928 46.755 36.337 36.316C46.7797 25.8785 58.9416 17.6834 72.4853 11.957C86.5088 6.02889 101.403 3.02307 116.753 3.02307C132.104 3.02307 146.998 6.02889 161.022 11.957C174.564 17.682 186.726 25.8771 197.17 36.316C207.613 46.7536 215.812 58.9094 221.541 72.4463C227.472 86.4629 230.479 101.349 230.479 116.692C230.479 132.036 227.472 146.922 221.541 160.939C215.813 174.474 207.614 186.63 197.17 197.069C186.727 207.506 174.565 215.701 161.022 221.428C146.998 227.356 132.104 230.362 116.753 230.362ZM116.753 14.7828C60.5324 14.7828 14.793 60.4994 14.793 116.692C14.793 172.886 60.5324 218.602 116.753 218.602C172.974 218.602 218.714 172.886 218.714 116.692C218.714 60.4994 172.976 14.7828 116.753 14.7828Z" fill="#001F30"/>
<path style="mix-blend-mode:screen" d="M123.668 9.99106C124.47 6.16936 122.02 2.42177 118.196 1.62059C114.373 0.81941 110.623 3.26803 109.822 7.08973C109.02 10.9114 111.47 14.659 115.294 15.4602C119.117 16.2614 122.867 13.8128 123.668 9.99106Z" fill="url(#paint1_radial_62_3802)"/>
<path d="M116.753 13.2561C118.986 13.2561 120.795 11.3075 120.795 8.90367C120.795 6.49987 118.986 4.55121 116.753 4.55121C114.521 4.55121 112.711 6.49987 112.711 8.90367C112.711 11.3075 114.521 13.2561 116.753 13.2561Z" fill="#333333"/>
<path d="M116.753 12.6311C118.986 12.6311 120.795 10.8223 120.795 8.59113C120.795 6.35994 118.986 4.55121 116.753 4.55121C114.521 4.55121 112.711 6.35994 112.711 8.59113C112.711 10.8223 114.521 12.6311 116.753 12.6311Z" fill="white"/>
<path d="M116.753 11.8619C118.335 11.8619 119.617 10.4891 119.617 8.79562C119.617 7.10214 118.335 5.72931 116.753 5.72931C115.172 5.72931 113.89 7.10214 113.89 8.79562C113.89 10.4891 115.172 11.8619 116.753 11.8619Z" fill="#333333"/>
<path d="M116.753 11.4529C118.335 11.4529 119.617 10.1716 119.617 8.5911C119.617 7.01058 118.335 5.72931 116.753 5.72931C115.172 5.72931 113.89 7.01058 113.89 8.5911C113.89 10.1716 115.172 11.4529 116.753 11.4529Z" fill="#F0EA8F"/>
<path d="M118.357 8.52357C118.545 7.64042 117.981 6.77256 117.097 6.58517C116.213 6.39777 115.345 6.96179 115.158 7.84495C114.97 8.7281 115.535 9.59595 116.418 9.78334C117.302 9.97074 118.17 9.40672 118.357 8.52357Z" fill="white"/>
<path style="mix-blend-mode:screen" d="M170.807 30.0898C174.714 30.0898 177.881 26.9244 177.881 23.0196C177.881 19.1148 174.714 15.9494 170.807 15.9494C166.9 15.9494 163.733 19.1148 163.733 23.0196C163.733 26.9244 166.9 30.0898 170.807 30.0898Z" fill="url(#paint2_radial_62_3802)"/>
<path d="M170.807 27.7336C173.039 27.7336 174.849 25.7849 174.849 23.3811C174.849 20.9773 173.039 19.0287 170.807 19.0287C168.575 19.0287 166.765 20.9773 166.765 23.3811C166.765 25.7849 168.575 27.7336 170.807 27.7336Z" fill="#333333"/>
<path d="M170.807 27.1071C173.039 27.1071 174.849 25.2983 174.849 23.0671C174.849 20.836 173.039 19.0272 170.807 19.0272C168.575 19.0272 166.765 20.836 166.765 23.0671C166.765 25.2983 168.575 27.1071 170.807 27.1071Z" fill="white"/>
<path d="M170.807 26.3379C172.388 26.3379 173.67 24.9651 173.67 23.2716C173.67 21.5782 172.388 20.2053 170.807 20.2053C169.226 20.2053 167.944 21.5782 167.944 23.2716C167.944 24.9651 169.226 26.3379 170.807 26.3379Z" fill="#333333"/>
<path d="M170.807 25.9289C172.388 25.9289 173.67 24.6476 173.67 23.0671C173.67 21.4866 172.388 20.2053 170.807 20.2053C169.226 20.2053 167.944 21.4866 167.944 23.0671C167.944 24.6476 169.226 25.9289 170.807 25.9289Z" fill="#F0EA8F"/>
<path d="M171.964 23.8145C172.603 23.1761 172.603 22.1411 171.964 21.5027C171.326 20.8643 170.29 20.8643 169.651 21.5027C169.013 22.1411 169.013 23.1761 169.651 23.8145C170.29 24.4529 171.326 24.4529 171.964 23.8145Z" fill="white"/>
<path style="mix-blend-mode:screen" d="M210.376 69.6393C214.283 69.6393 217.45 66.4738 217.45 62.5691C217.45 58.6643 214.283 55.4988 210.376 55.4988C206.47 55.4988 203.303 58.6643 203.303 62.5691C203.303 66.4738 206.47 69.6393 210.376 69.6393Z" fill="url(#paint3_radial_62_3802)"/>
<path d="M210.376 67.283C212.609 67.283 214.418 65.3344 214.418 62.9306C214.418 60.5268 212.609 58.5781 210.376 58.5781C208.144 58.5781 206.334 60.5268 206.334 62.9306C206.334 65.3344 208.144 67.283 210.376 67.283Z" fill="#333333"/>
<path d="M210.376 66.658C212.609 66.658 214.418 64.8492 214.418 62.618C214.418 60.3869 212.609 58.5781 210.376 58.5781C208.144 58.5781 206.334 60.3869 206.334 62.618C206.334 64.8492 208.144 66.658 210.376 66.658Z" fill="white"/>
<path d="M210.376 65.8888C211.958 65.8888 213.24 64.516 213.24 62.8225C213.24 61.1291 211.958 59.7562 210.376 59.7562C208.795 59.7562 207.513 61.1291 207.513 62.8225C207.513 64.516 208.795 65.8888 210.376 65.8888Z" fill="#333333"/>
<path d="M210.376 65.4798C211.958 65.4798 213.24 64.1985 213.24 62.618C213.24 61.0375 211.958 59.7562 210.376 59.7562C208.795 59.7562 207.513 61.0375 207.513 62.618C207.513 64.1985 208.795 65.4798 210.376 65.4798Z" fill="#F0EA8F"/>
<path d="M211.533 63.3654C212.171 62.727 212.171 61.692 211.533 61.0536C210.894 60.4152 209.858 60.4152 209.22 61.0536C208.581 61.692 208.581 62.727 209.22 63.3654C209.858 64.0038 210.894 64.0038 211.533 63.3654Z" fill="white"/>
<path style="mix-blend-mode:screen" d="M224.86 123.666C228.766 123.666 231.933 120.501 231.933 116.596C231.933 112.691 228.766 109.526 224.86 109.526C220.953 109.526 217.786 112.691 217.786 116.596C217.786 120.501 220.953 123.666 224.86 123.666Z" fill="url(#paint4_radial_62_3802)"/>
<path d="M224.86 121.309C227.092 121.309 228.901 119.36 228.901 116.956C228.901 114.552 227.092 112.604 224.86 112.604C222.627 112.604 220.818 114.552 220.818 116.956C220.818 119.36 222.627 121.309 224.86 121.309Z" fill="#333333"/>
<path d="M227.718 119.501C229.296 117.923 229.296 115.365 227.718 113.787C226.139 112.21 223.58 112.21 222.002 113.787C220.423 115.365 220.423 117.923 222.002 119.501C223.58 121.078 226.139 121.078 227.718 119.501Z" fill="white"/>
<path d="M224.859 119.914C226.441 119.914 227.723 118.542 227.723 116.848C227.723 115.155 226.441 113.782 224.859 113.782C223.278 113.782 221.996 115.155 221.996 116.848C221.996 118.542 223.278 119.914 224.859 119.914Z" fill="#333333"/>
<path d="M226.884 118.668C228.002 117.55 228.002 115.738 226.884 114.62C225.766 113.503 223.953 113.503 222.835 114.62C221.717 115.738 221.717 117.55 222.835 118.668C223.953 119.785 225.766 119.785 226.884 118.668Z" fill="#F0EA8F"/>
<path d="M224.86 117.869C225.763 117.869 226.495 117.137 226.495 116.235C226.495 115.332 225.763 114.6 224.86 114.6C223.956 114.6 223.224 115.332 223.224 116.235C223.224 117.137 223.956 117.869 224.86 117.869Z" fill="white"/>
<path style="mix-blend-mode:screen" d="M210.376 177.692C214.283 177.692 217.45 174.526 217.45 170.621C217.45 166.717 214.283 163.551 210.376 163.551C206.47 163.551 203.303 166.717 203.303 170.621C203.303 174.526 206.47 177.692 210.376 177.692Z" fill="url(#paint5_radial_62_3802)"/>
<path d="M210.376 175.335C212.609 175.335 214.418 173.387 214.418 170.983C214.418 168.579 212.609 166.63 210.376 166.63C208.144 166.63 206.334 168.579 206.334 170.983C206.334 173.387 208.144 175.335 210.376 175.335Z" fill="#333333"/>
<path d="M210.376 174.71C212.609 174.71 214.418 172.902 214.418 170.67C214.418 168.439 212.609 166.63 210.376 166.63C208.144 166.63 206.334 168.439 206.334 170.67C206.334 172.902 208.144 174.71 210.376 174.71Z" fill="white"/>
<path d="M210.376 173.94C211.958 173.94 213.24 172.567 213.24 170.873C213.24 169.18 211.958 167.807 210.376 167.807C208.795 167.807 207.513 169.18 207.513 170.873C207.513 172.567 208.795 173.94 210.376 173.94Z" fill="#333333"/>
<path d="M210.376 173.532C211.958 173.532 213.24 172.251 213.24 170.67C213.24 169.09 211.958 167.809 210.376 167.809C208.795 167.809 207.513 169.09 207.513 170.67C207.513 172.251 208.795 173.532 210.376 173.532Z" fill="#F0EA8F"/>
<path d="M210.376 171.896C211.28 171.896 212.012 171.164 212.012 170.261C212.012 169.358 211.28 168.627 210.376 168.627C209.473 168.627 208.741 169.358 208.741 170.261C208.741 171.164 209.473 171.896 210.376 171.896Z" fill="white"/>
<path style="mix-blend-mode:screen" d="M170.807 217.241C174.714 217.241 177.881 214.076 177.881 210.171C177.881 206.266 174.714 203.101 170.807 203.101C166.9 203.101 163.733 206.266 163.733 210.171C163.733 214.076 166.9 217.241 170.807 217.241Z" fill="url(#paint6_radial_62_3802)"/>
<path d="M170.807 214.885C173.039 214.885 174.849 212.936 174.849 210.532C174.849 208.129 173.039 206.18 170.807 206.18C168.575 206.18 166.765 208.129 166.765 210.532C166.765 212.936 168.575 214.885 170.807 214.885Z" fill="#333333"/>
<path d="M170.807 214.26C173.039 214.26 174.849 212.451 174.849 210.22C174.849 207.989 173.039 206.18 170.807 206.18C168.575 206.18 166.765 207.989 166.765 210.22C166.765 212.451 168.575 214.26 170.807 214.26Z" fill="white"/>
<path d="M170.807 213.491C172.388 213.491 173.67 212.118 173.67 210.424C173.67 208.731 172.388 207.358 170.807 207.358C169.226 207.358 167.944 208.731 167.944 210.424C167.944 212.118 169.226 213.491 170.807 213.491Z" fill="#333333"/>
<path d="M170.807 213.082C172.388 213.082 173.67 211.8 173.67 210.22C173.67 208.639 172.388 207.358 170.807 207.358C169.226 207.358 167.944 208.639 167.944 210.22C167.944 211.8 169.226 213.082 170.807 213.082Z" fill="#F0EA8F"/>
<path d="M170.807 211.446C171.71 211.446 172.443 210.714 172.443 209.811C172.443 208.908 171.71 208.176 170.807 208.176C169.904 208.176 169.172 208.908 169.172 209.811C169.172 210.714 169.904 211.446 170.807 211.446Z" fill="white"/>
<path style="mix-blend-mode:screen" d="M121.756 229.649C124.519 226.887 124.519 222.411 121.756 219.65C118.994 216.889 114.515 216.889 111.753 219.65C108.99 222.411 108.99 226.887 111.753 229.649C114.515 232.41 118.994 232.41 121.756 229.649Z" fill="url(#paint7_radial_62_3802)"/>
<path d="M116.753 229.361C118.986 229.361 120.795 227.412 120.795 225.008C120.795 222.605 118.986 220.656 116.753 220.656C114.521 220.656 112.711 222.605 112.711 225.008C112.711 227.412 114.521 229.361 116.753 229.361Z" fill="#333333"/>
<path d="M116.753 228.736C118.986 228.736 120.795 226.927 120.795 224.696C120.795 222.465 118.986 220.656 116.753 220.656C114.521 220.656 112.711 222.465 112.711 224.696C112.711 226.927 114.521 228.736 116.753 228.736Z" fill="white"/>
<path d="M116.753 227.967C118.335 227.967 119.617 226.594 119.617 224.9C119.617 223.207 118.335 221.834 116.753 221.834C115.172 221.834 113.89 223.207 113.89 224.9C113.89 226.594 115.172 227.967 116.753 227.967Z" fill="#333333"/>
<path d="M116.753 227.558C118.335 227.558 119.617 226.276 119.617 224.696C119.617 223.115 118.335 221.834 116.753 221.834C115.172 221.834 113.89 223.115 113.89 224.696C113.89 226.276 115.172 227.558 116.753 227.558Z" fill="#F0EA8F"/>
<path d="M118.358 224.637C118.545 223.754 117.981 222.886 117.097 222.699C116.214 222.511 115.345 223.075 115.158 223.958C114.97 224.842 115.535 225.709 116.418 225.897C117.302 226.084 118.17 225.52 118.358 224.637Z" fill="white"/>
<path style="mix-blend-mode:screen" d="M23.132 177.692C27.0387 177.692 30.2057 174.526 30.2057 170.621C30.2057 166.717 27.0387 163.551 23.132 163.551C19.2252 163.551 16.0582 166.717 16.0582 170.621C16.0582 174.526 19.2252 177.692 23.132 177.692Z" fill="url(#paint8_radial_62_3802)"/>
<path d="M23.132 175.335C25.3643 175.335 27.1739 173.387 27.1739 170.983C27.1739 168.579 25.3643 166.63 23.132 166.63C20.8997 166.63 19.0901 168.579 19.0901 170.983C19.0901 173.387 20.8997 175.335 23.132 175.335Z" fill="#333333"/>
<path d="M23.132 174.71C25.3643 174.71 27.1739 172.902 27.1739 170.67C27.1739 168.439 25.3643 166.63 23.132 166.63C20.8997 166.63 19.0901 168.439 19.0901 170.67C19.0901 172.902 20.8997 174.71 23.132 174.71Z" fill="white"/>
<path d="M23.132 173.94C24.7133 173.94 25.9952 172.567 25.9952 170.873C25.9952 169.18 24.7133 167.807 23.132 167.807C21.5507 167.807 20.2688 169.18 20.2688 170.873C20.2688 172.567 21.5507 173.94 23.132 173.94Z" fill="#333333"/>
<path d="M23.132 173.532C24.7133 173.532 25.9952 172.251 25.9952 170.67C25.9952 169.09 24.7133 167.809 23.132 167.809C21.5507 167.809 20.2688 169.09 20.2688 170.67C20.2688 172.251 21.5507 173.532 23.132 173.532Z" fill="#F0EA8F"/>
<path d="M23.132 171.896C24.0352 171.896 24.7675 171.164 24.7675 170.261C24.7675 169.358 24.0352 168.627 23.132 168.627C22.2287 168.627 21.4965 169.358 21.4965 170.261C21.4965 171.164 22.2287 171.896 23.132 171.896Z" fill="white"/>
<path style="mix-blend-mode:screen" d="M8.64869 123.666C12.5554 123.666 15.7224 120.501 15.7224 116.596C15.7224 112.691 12.5554 109.526 8.64869 109.526C4.74197 109.526 1.57495 112.691 1.57495 116.596C1.57495 120.501 4.74197 123.666 8.64869 123.666Z" fill="url(#paint9_radial_62_3802)"/>
<path d="M8.64874 121.309C10.881 121.309 12.6907 119.36 12.6907 116.956C12.6907 114.552 10.881 112.604 8.64874 112.604C6.41645 112.604 4.60681 114.552 4.60681 116.956C4.60681 119.36 6.41645 121.309 8.64874 121.309Z" fill="#333333"/>
<path d="M12.5844 117.556C13.0911 115.383 11.7395 113.211 9.56545 112.704C7.39143 112.198 5.21826 113.549 4.71155 115.722C4.20484 117.895 5.55646 120.067 7.73049 120.573C9.90451 121.08 12.0777 119.729 12.5844 117.556Z" fill="white"/>
<path d="M8.64874 119.914C10.23 119.914 11.5119 118.542 11.5119 116.848C11.5119 115.155 10.23 113.782 8.64874 113.782C7.06743 113.782 5.78552 115.155 5.78552 116.848C5.78552 118.542 7.06743 119.914 8.64874 119.914Z" fill="#333333"/>
<path d="M11.4352 117.298C11.7955 115.759 10.8394 114.22 9.29965 113.859C7.75993 113.499 6.21968 114.455 5.85939 115.994C5.4991 117.533 6.45522 119.072 7.99494 119.432C9.53466 119.793 11.0749 118.837 11.4352 117.298Z" fill="#F0EA8F"/>
<path d="M8.64869 117.869C9.55195 117.869 10.2842 117.137 10.2842 116.235C10.2842 115.332 9.55195 114.6 8.64869 114.6C7.74542 114.6 7.01318 115.332 7.01318 116.235C7.01318 117.137 7.74542 117.869 8.64869 117.869Z" fill="white"/>
<path style="mix-blend-mode:screen" d="M23.132 69.6393C27.0387 69.6393 30.2057 66.4738 30.2057 62.5691C30.2057 58.6643 27.0387 55.4988 23.132 55.4988C19.2252 55.4988 16.0582 58.6643 16.0582 62.5691C16.0582 66.4738 19.2252 69.6393 23.132 69.6393Z" fill="url(#paint10_radial_62_3802)"/>
<path d="M23.132 67.283C25.3643 67.283 27.1739 65.3344 27.1739 62.9306C27.1739 60.5268 25.3643 58.5781 23.132 58.5781C20.8997 58.5781 19.0901 60.5268 19.0901 62.9306C19.0901 65.3344 20.8997 67.283 23.132 67.283Z" fill="#333333"/>
<path d="M23.132 66.658C25.3643 66.658 27.1739 64.8492 27.1739 62.618C27.1739 60.3869 25.3643 58.5781 23.132 58.5781C20.8997 58.5781 19.0901 60.3869 19.0901 62.618C19.0901 64.8492 20.8997 66.658 23.132 66.658Z" fill="white"/>
<path d="M23.132 65.8888C24.7133 65.8888 25.9952 64.516 25.9952 62.8225C25.9952 61.1291 24.7133 59.7562 23.132 59.7562C21.5507 59.7562 20.2688 61.1291 20.2688 62.8225C20.2688 64.516 21.5507 65.8888 23.132 65.8888Z" fill="#333333"/>
<path d="M23.132 65.4798C24.7133 65.4798 25.9952 64.1985 25.9952 62.618C25.9952 61.0375 24.7133 59.7562 23.132 59.7562C21.5507 59.7562 20.2688 61.0375 20.2688 62.618C20.2688 64.1985 21.5507 65.4798 23.132 65.4798Z" fill="#F0EA8F"/>
<path d="M24.7114 62.6273C24.9452 61.7552 24.4274 60.8589 23.5549 60.6252C22.6824 60.3915 21.7856 60.9091 21.5518 61.7811C21.3181 62.6532 21.8358 63.5495 22.7083 63.7832C23.5808 64.0169 24.4776 63.4993 24.7114 62.6273Z" fill="white"/>
<path style="mix-blend-mode:screen" d="M62.7011 30.0898C66.6078 30.0898 69.7748 26.9244 69.7748 23.0196C69.7748 19.1148 66.6078 15.9494 62.7011 15.9494C58.7943 15.9494 55.6273 19.1148 55.6273 23.0196C55.6273 26.9244 58.7943 30.0898 62.7011 30.0898Z" fill="url(#paint11_radial_62_3802)"/>
<path d="M62.7011 27.7336C64.9334 27.7336 66.743 25.7849 66.743 23.3811C66.743 20.9773 64.9334 19.0287 62.7011 19.0287C60.4688 19.0287 58.6592 20.9773 58.6592 23.3811C58.6592 25.7849 60.4688 27.7336 62.7011 27.7336Z" fill="#333333"/>
<path d="M62.7011 27.1071C64.9334 27.1071 66.743 25.2983 66.743 23.0671C66.743 20.836 64.9334 19.0272 62.7011 19.0272C60.4688 19.0272 58.6592 20.836 58.6592 23.0671C58.6592 25.2983 60.4688 27.1071 62.7011 27.1071Z" fill="white"/>
<path d="M62.701 26.3379C64.2823 26.3379 65.5642 24.9651 65.5642 23.2716C65.5642 21.5782 64.2823 20.2053 62.701 20.2053C61.1197 20.2053 59.8378 21.5782 59.8378 23.2716C59.8378 24.9651 61.1197 26.3379 62.701 26.3379Z" fill="#333333"/>
<path d="M62.701 25.9289C64.2823 25.9289 65.5642 24.6476 65.5642 23.0671C65.5642 21.4866 64.2823 20.2053 62.701 20.2053C61.1197 20.2053 59.8378 21.4866 59.8378 23.0671C59.8378 24.6476 61.1197 25.9289 62.701 25.9289Z" fill="#F0EA8F"/>
<path d="M64.2949 23.0381C64.5034 22.1597 63.9601 21.2786 63.0812 21.0701C62.2023 20.8617 61.3208 21.4048 61.1123 22.2832C60.9037 23.1616 61.4471 24.0427 62.3259 24.2512C63.2048 24.4596 64.0863 23.9165 64.2949 23.0381Z" fill="white"/>
<path style="mix-blend-mode:screen" d="M62.7012 217.241C66.6079 217.241 69.7749 214.076 69.7749 210.171C69.7749 206.266 66.6079 203.101 62.7012 203.101C58.7945 203.101 55.6274 206.266 55.6274 210.171C55.6274 214.076 58.7945 217.241 62.7012 217.241Z" fill="url(#paint12_radial_62_3802)"/>
<path d="M62.7011 214.885C64.9334 214.885 66.743 212.936 66.743 210.532C66.743 208.129 64.9334 206.18 62.7011 206.18C60.4688 206.18 58.6592 208.129 58.6592 210.532C58.6592 212.936 60.4688 214.885 62.7011 214.885Z" fill="#333333"/>
<path d="M62.7011 214.26C64.9334 214.26 66.743 212.451 66.743 210.22C66.743 207.989 64.9334 206.18 62.7011 206.18C60.4688 206.18 58.6592 207.989 58.6592 210.22C58.6592 212.451 60.4688 214.26 62.7011 214.26Z" fill="white"/>
<path d="M62.7011 213.491C64.2824 213.491 65.5643 212.118 65.5643 210.424C65.5643 208.731 64.2824 207.358 62.7011 207.358C61.1198 207.358 59.8379 208.731 59.8379 210.424C59.8379 212.118 61.1198 213.491 62.7011 213.491Z" fill="#333333"/>
<path d="M62.7011 213.082C64.2824 213.082 65.5643 211.8 65.5643 210.22C65.5643 208.639 64.2824 207.358 62.7011 207.358C61.1198 207.358 59.8379 208.639 59.8379 210.22C59.8379 211.8 61.1198 213.082 62.7011 213.082Z" fill="#F0EA8F"/>
<path d="M62.7012 211.446C63.6044 211.446 64.3367 210.714 64.3367 209.811C64.3367 208.908 63.6044 208.176 62.7012 208.176C61.7979 208.176 61.0657 208.908 61.0657 209.811C61.0657 210.714 61.7979 211.446 62.7012 211.446Z" fill="white"/>
<defs>
<radialGradient id="paint0_radial_62_3802" cx="0" cy="0" r="1" gradientUnits="userSpaceOnUse" gradientTransform="translate(116.753 116.692) scale(101.96 101.91)">
<stop stop-opacity="0"/>
<stop offset="0.225" stop-opacity="0"/>
<stop offset="0.925" stop-opacity="0"/>
<stop offset="1" stop-opacity="0.66"/>
</radialGradient>
<radialGradient id="paint1_radial_62_3802" cx="0" cy="0" r="1" gradientUnits="userSpaceOnUse" gradientTransform="translate(116.745 8.54847) scale(7.07374 7.07022)">
<stop stop-color="#FCEE21"/>
<stop offset="1"/>
</radialGradient>
<radialGradient id="paint2_radial_62_3802" cx="0" cy="0" r="1" gradientUnits="userSpaceOnUse" gradientTransform="translate(170.807 23.0196) scale(7.07373 7.07022)">
<stop stop-color="#FCEE21"/>
<stop offset="1"/>
</radialGradient>
<radialGradient id="paint3_radial_62_3802" cx="0" cy="0" r="1" gradientUnits="userSpaceOnUse" gradientTransform="translate(210.376 62.5705) scale(7.07374 7.07022)">
<stop stop-color="#FCEE21"/>
<stop offset="1"/>
</radialGradient>
<radialGradient id="paint4_radial_62_3802" cx="0" cy="0" r="1" gradientUnits="userSpaceOnUse" gradientTransform="translate(224.86 116.596) scale(7.07374 7.07022)">
<stop stop-color="#FCEE21"/>
<stop offset="1"/>
</radialGradient>
<radialGradient id="paint5_radial_62_3802" cx="0" cy="0" r="1" gradientUnits="userSpaceOnUse" gradientTransform="translate(210.376 167.277) scale(7.07374 7.07023)">
<stop stop-color="#FCEE21"/>
<stop offset="1"/>
</radialGradient>
<radialGradient id="paint6_radial_62_3802" cx="0" cy="0" r="1" gradientUnits="userSpaceOnUse" gradientTransform="translate(170.807 206.827) scale(7.07373 7.07023)">
<stop stop-color="#FCEE21"/>
<stop offset="1"/>
</radialGradient>
<radialGradient id="paint7_radial_62_3802" cx="0" cy="0" r="1" gradientUnits="userSpaceOnUse" gradientTransform="translate(116.754 224.649) scale(7.07374 7.07022)">
<stop stop-color="#FCEE21"/>
<stop offset="1"/>
</radialGradient>
<radialGradient id="paint8_radial_62_3802" cx="0" cy="0" r="1" gradientUnits="userSpaceOnUse" gradientTransform="translate(23.132 167.277) scale(7.07374 7.07023)">
<stop stop-color="#FCEE21"/>
<stop offset="1"/>
</radialGradient>
<radialGradient id="paint9_radial_62_3802" cx="0" cy="0" r="1" gradientUnits="userSpaceOnUse" gradientTransform="translate(8.64725 116.596) scale(7.07374 7.07022)">
<stop stop-color="#FCEE21"/>
<stop offset="1"/>
</radialGradient>
<radialGradient id="paint10_radial_62_3802" cx="0" cy="0" r="1" gradientUnits="userSpaceOnUse" gradientTransform="translate(23.132 62.5705) scale(7.07374 7.07022)">
<stop stop-color="#FCEE21"/>
<stop offset="1"/>
</radialGradient>
<radialGradient id="paint11_radial_62_3802" cx="0" cy="0" r="1" gradientUnits="userSpaceOnUse" gradientTransform="translate(-55.3464 23.0196) scale(0.0720487 0.0720129)">
<stop stop-color="#FCEE21"/>
<stop offset="1"/>
</radialGradient>
<radialGradient id="paint12_radial_62_3802" cx="0" cy="0" r="1" gradientUnits="userSpaceOnUse" gradientTransform="translate(62.7012 210.172) scale(7.07374 7.07023)">
<stop stop-color="#FCEE21"/>
<stop offset="1"/>
</radialGradient>
</defs>
</svg>
